# xmcd
#
# Track frame offsets:
#	150
#	8743
#	13480
#	22709
#	35759
#	47943
#	61672
#	67327
#	73660
#	81248
#	93185
#	103095
#	112910
#	119127
#	127784
#	132584
#	141828
#	154878
#	167157
#	180876
#	186559
#	192852
#	200423
#	212378
#	222280
#	232070
#	238420
#	242620
#	245170
#	248367
#	251667
#	258567
#	262167
#	265917
#	270117
#
# Disc length: 3629 seconds
#
# Revision: 1
# Processed by: cddbd v1.5.2PL0 Copyright (c) Steve Scherf et al.
# Submitted via: audiograbber 1.83.01
#
DISCID=0a0e2b23
DTITLE=Various Artist - Und Wenn Üser Ländle A Käsknöpfle wär
DYEAR=1900
DGENRE=
TTITLE0=Und wenn üser Ländle a Käsknöpfle wär
TTITLE1=Gibele, Gäbele
TTITLE2=Es ischt amol a Wible gsi
TTITLE3=Da dobba am Bergle
TTITLE4=Üsre Oma
TTITLE5='s Wäldarbähle
TTITLE6=Dri leodorne Strümpf
TTITLE7=Muatle, magscht an Emser Buob
TTITLE8=Schwäßhölzle
TTITLE9=I Muetters Stübele
TTITLE10=O Hoamatle
TTITLE11=As dunklat ondro Bänko
TTITLE12=Müsle, gang ga schlofa
TTITLE13=Playback - Und wenn üser Ländle a Käsknöpfle wär
TTITLE14=Playback - Gibele, Gäbele
TTITLE15=Playback - Es ischt amol a Wible gsi
TTITLE16=Playback - Da dobba am Bergle
TTITLE17=Playback - Üsre Oma
TTITLE18=Playback - 's Wäldarbähle
TTITLE19=Playback - Dri leodorne Strümpf
TTITLE20=Playback - Muatle, magscht an Emser Buob
TTITLE21=Playback - Schwäßhölzle
TTITLE22=Playback - I Muetters Stübele
TTITLE23=Playback - O Hoamatle
TTITLE24=Playback - As dunklat ondro Bänko
TTITLE25=Playback - Müsle, gang ga schlofa
TTITLE26=Verschödene Dialekt
TTITLE27=A guati Lösig
TTITLE28=Ds Chätzle
TTITLE29=D' Poppoliech
TTITLE30=Wio d'Bubo söod
TTITLE31=Dor Gogoschuoh
TTITLE32=Mäderer Hutzele
TTITLE33=Der lange Bart
TTITLE34=Sepp und Marte
EXTD=
EXTT0=
EXTT1=
EXTT2=
EXTT3=
EXTT4=
EXTT5=
EXTT6=
EXTT7=
EXTT8=
EXTT9=
EXTT10=
EXTT11=
EXTT12=
EXTT13=
EXTT14=
EXTT15=
EXTT16=
EXTT17=
EXTT18=
EXTT19=
EXTT20=
EXTT21=
EXTT22=
EXTT23=
EXTT24=
EXTT25=
EXTT26=
EXTT27=
EXTT28=
EXTT29=
EXTT30=
EXTT31=
EXTT32=
EXTT33=
EXTT34=
PLAYORDER=
